# xmcd
#
# Track frame offsets: 
#        150
#        25527
#        42540
#        59719
#        79172
#        97014
#        114903
#        138094
#        155858
#        173974
#        193094
#        211150
#        228336
#        260484
#
# Disc length: 3919 seconds
#
# Revision: 0
# Processed by: cddbd v1.5.2PL0 Copyright (c) Steve Scherf et al.
# Submitted via: ExactAudioCopyFreeDBPlugin 1.0
#
DISCID=c20f4d0e
DTITLE=Melba Moore - Closer (Expanded Edition)
DYEAR=2013
DGENRE=Disco
TTITLE0=Everything So Good About You
TTITLE1=You Got Me Loving You
TTITLE2=Closer
TTITLE3=Something On Your Mind
TTITLE4=Shame
TTITLE5=Never Gonna Let You Get Away
TTITLE6=Rest Inside My Love
TTITLE7=I Could Never Miss You More
TTITLE8=Next To You
TTITLE9=You Don't Know What You Do To Me
TTITLE10=You Stepped Into My Life (7")
TTITLE11=Pick Me Up I'll Dance (7")
TTITLE12=Burn (Special Disco Mix) (12")
TTITLE13=Night People (12")
EXTD=
EXTT0=
EXTT1=
EXTT2=
EXTT3=
EXTT4=
EXTT5=
EXTT6=
EXTT7=
EXTT8=
EXTT9=
EXTT10=
EXTT11=
EXTT12=
EXTT13=
PLAYORDER=
